<?xml version="1.0" encoding="UTF-8"?>
<svg id="Layer_1" data-name="Layer 1" xmlns="http://www.w3.org/2000/svg" viewBox="0 0 265.1 265.1">
  <defs>
    <style>
      .cls-1 {
        fill: #fff;
      }

      .cls-2 {
        fill: #222124;
      }
    </style>
  </defs>
  <path class="cls-2" d="M87.54,253.81l150.67-97.36c5.01-3.24,7.35-9.35,5.78-15.1l-33.6-123.09c-1.97-7.21-9.36-11.51-16.6-9.66L30.94,50.3c-7.32,1.88-11.74,9.33-9.87,16.66l45.77,178.75c2.32,9.06,12.84,13.18,20.69,8.1Z"/>
  <path class="cls-1" d="M199.77,42.93c-1.03-.97-3.03-1.64-4.76-1.17l-40.29,10.9-79.88,20.57c-5.28,1.36-9.04,4.55-10.4,9.96l-7.08,28.06c-.42,1.68.28,3.72,1.59,4.7,1.31.99,3.4,1,4.71.29,5-2.73,9.44-6.03,13.71-9.8l9.36-8.27c3.53-3.11,13.31-9,17.08-4.9.93,1.01,2.04,3.26,1.67,4.99l-9.1,42.8-12.07,57.79c-.57,2.72,1.08,5.69,2.56,7.19,3.94,4,9.91,2.07,14.26-.85l48.86-32.83,12.02-7.44-.07-.11c1.52-1.05,2.55-2.74,2.48-4.72-.11-3.08-2.7-5.48-5.78-5.37-.92.03-1.75.34-2.5.77l-.03-.06c-3.7,2.32-5.48,3.11-8.26,4.33-3.51,1.53-10.08,2.95-11.78-1.44-.84-2.16-.81-4.75-.3-7.05l5.7-25.39,8.05-36.42c2.75-12.43,15.67-15.57,18.89-12.75,5.04,4.42-2.94,13.6,3.06,16.29,2.9,1.3,5.64.32,7.78-1.09,3.05-2.01,4.74-4.82,6.36-8.17l10.21-21.14c2.33-4.83,4.03-9.65,5.42-14.82.45-1.66-.39-3.82-1.48-4.85Z"/>
</svg>