<?xml version="1.0" encoding="UTF-8"?>
<svg id="Layer_1" data-name="Layer 1" xmlns="http://www.w3.org/2000/svg" viewBox="0 0 500 265.1">
  <defs>
    <style>
      .cls-1 {
        fill: #222124;
      }
    </style>
  </defs>
  <g>
    <path class="cls-1" d="M81.41,228.61c1.81.83,3.25,1.99,4.31,3.49,1.22,1.69,1.83,3.78,1.83,6.26,0,2.21-.41,4.04-1.24,5.49-.83,1.5-1.91,2.7-3.25,3.6-1.26.95-2.74,1.6-4.43,1.95-1.58.39-3.21.59-4.9.59h-18.49v-41.36h15.89c1.46,0,3.23.14,5.32.41,1.73.32,3.31.91,4.73,1.77,1.38.83,2.5,2.03,3.37,3.6.87,1.46,1.3,3.43,1.3,5.91,0,1.89-.41,3.62-1.24,5.2-.71,1.38-1.77,2.4-3.19,3.07ZM72.84,221.64c0-.63-.1-1.1-.3-1.42-.2-.24-.49-.45-.89-.65-.24-.08-.67-.16-1.3-.24h-1.89v4.84h.71c.63,0,1.1-.02,1.42-.06.43-.08.83-.2,1.18-.35.35-.12.61-.35.77-.71.2-.31.3-.79.3-1.42ZM72.66,234.05c-.47-.16-1.02-.27-1.65-.35-.24,0-.54,0-.92-.03-.37-.02-.64-.03-.8-.03h-.83v5.79h1c.75,0,1.32-.02,1.71-.06.59,0,1.12-.12,1.6-.35.43-.2.81-.47,1.12-.83.27-.39.41-.95.41-1.65,0-.79-.14-1.34-.41-1.65-.39-.47-.81-.75-1.24-.83Z"/>
    <path class="cls-1" d="M126.07,249.29l.35.71h-16.36l-5.26-11.82v11.82h-13.88v-41.36h16.48c2.17,0,4.15.26,5.97.77,1.89.55,3.56,1.4,5.02,2.54,1.46,1.22,2.58,2.74,3.37,4.55.87,1.77,1.3,4,1.3,6.68,0,1.46-.16,2.82-.47,4.08-.24,1.14-.67,2.15-1.3,3.01-.71.95-1.5,1.69-2.36,2.24-.47.28-1,.57-1.6.89,5.55,10.04,8.47,15.34,8.74,15.89ZM104.8,226.55h.53c.75,0,1.28-.04,1.59-.12.47-.04.92-.16,1.36-.35.39-.27.69-.57.89-.89.2-.39.3-.91.3-1.54,0-.75-.1-1.3-.3-1.65-.2-.35-.47-.63-.83-.83-.39-.27-.81-.43-1.24-.47-.35-.04-.93-.06-1.71-.06h-.59v5.91Z"/>
    <path class="cls-1" d="M168.37,250h-15.01l-1.24-5.02h-9.28l-1.06,5.02h-15.01l12.94-41.36h15.36l13.29,41.36ZM148.17,227.85c-.24-1.02-.39-1.89-.47-2.6l-.18-1.36-2.07,10.57h4.14l-1.42-6.62Z"/>
    <path class="cls-1" d="M194.25,221.23v-12.58h13.59v41.36h-13.35l-11.11-20.15.35,2.48c.16,1.14.24,2.5.24,4.08v13.59h-13.59v-41.36h13.47l11.28,21.33c-.24-1.58-.39-2.76-.47-3.54-.28-1.61-.41-3.35-.41-5.2Z"/>
    <path class="cls-1" d="M246.89,220.22c1.14,2.72,1.71,5.95,1.71,9.69,0,3.11-.47,5.87-1.42,8.27-.87,2.44-2.15,4.57-3.84,6.38-1.73,1.73-3.72,3.07-5.97,4.02-2.32.95-4.84,1.42-7.56,1.42h-17.25v-41.36h13.94c3.07,0,5.97.39,8.68,1.18,2.6.75,4.94,2.01,7.03,3.78,1.97,1.73,3.52,3.94,4.67,6.62ZM234.42,229.85c0-2.72-.65-4.67-1.95-5.85-1.3-1.18-3.09-1.77-5.38-1.77h-.35v14.71h.35c1.1,0,2.09-.14,2.95-.41.91-.24,1.65-.65,2.24-1.24.71-.63,1.22-1.36,1.54-2.19.39-.83.59-1.91.59-3.25Z"/>
    <path class="cls-1" d="M272.7,234.59c-.06-3.48,2.78-6.2,6.2-6.2s6.2,2.72,6.2,6.14-2.72,6.2-6.2,6.2-6.2-2.66-6.2-6.14Z"/>
    <path class="cls-1" d="M361.2,208.64h15.01l-12.94,41.36h-15.36l-5.67-17.72-5.55,17.72h-15.36l-13.29-41.36h15.01l1.3,5.38c1.34,5.79,2.86,12.78,4.55,20.97l5.73-26.35h15.01l1.3,5.38c1.46,6.26,2.97,13.25,4.55,20.97l5.73-26.35Z"/>
    <path class="cls-1" d="M378.16,208.64h28.54v11.99h-14.24v2.89h12.82v11.46h-12.82v3.01h14.18v11.99h-28.48v-41.36Z"/>
    <path class="cls-1" d="M437.12,228.61c1.81.83,3.25,1.99,4.31,3.49,1.22,1.69,1.83,3.78,1.83,6.26,0,2.21-.41,4.04-1.24,5.49-.83,1.5-1.91,2.7-3.25,3.6-1.26.95-2.74,1.6-4.43,1.95-1.58.39-3.21.59-4.9.59h-18.49v-41.36h15.89c1.46,0,3.23.14,5.32.41,1.73.32,3.31.91,4.73,1.77,1.38.83,2.5,2.03,3.37,3.6.87,1.46,1.3,3.43,1.3,5.91,0,1.89-.41,3.62-1.24,5.2-.71,1.38-1.77,2.4-3.19,3.07ZM428.56,221.64c0-.63-.1-1.1-.3-1.42-.2-.24-.49-.45-.89-.65-.24-.08-.67-.16-1.3-.24h-1.89v4.84h.71c.63,0,1.1-.02,1.42-.06.43-.08.83-.2,1.18-.35.35-.12.61-.35.77-.71.2-.31.3-.79.3-1.42ZM428.38,234.05c-.47-.16-1.02-.27-1.65-.35-.24,0-.54,0-.92-.03-.37-.02-.64-.03-.8-.03h-.83v5.79h1c.75,0,1.32-.02,1.71-.06.59,0,1.12-.12,1.6-.35.43-.2.81-.47,1.12-.83.27-.39.41-.95.41-1.65,0-.79-.14-1.34-.41-1.65-.39-.47-.81-.75-1.24-.83Z"/>
  </g>
  <g>
    <path class="cls-1" d="M374.43,83.2c-5.55,14.76-24.3,25.98-37.46,33.44-1.05.59-2.02,2.02-2.11,2.95-.11,1.15.48,2.79,1.29,3.69,2.07,2.33,5.25,2.99,8.37,2.39,11.75-2.26,24.81-13.99,31.77-20.65,6.53-12.91,18.81-33.21,30.97-41.02,8.58-5.51,20.42-9.73,30.44-6.36.96.32,2.45.47,3.35-.07.74-.44,1.39-1.78,1.6-2.92,1.15-6.17,2.26-12.17,1.84-18.46-.36-5.49,2.91-9.86,8.22-11.21,12.76-3.26,13.16-5.97,22.85-14.43,2.74-2.39,6.45-3.43,8.87-.95.97.99,1.67,2.98,1.29,4.65l-12.09,53.55-8.61,38.73c-.26,1.19.69,3.07,1.48,3.55s2.76.73,3.79.25c4.46-2.09,8.33-4.6,12.5-7.16,2.16-1.33,5.25-1.36,6.68.97,1.59,2.6.43,5.91-1.97,7.87-8.6,7.03-41.91,32.58-41.91,32.58-3.12,2.15-7.04,2.85-10.67,2.48-5.63-.56-9.75-4.96-9.53-10.6.13-3.41,1.29-6.33-.33-7.46-.56-.39-2.34-.29-2.9.29-8.6,8.86-13,15.56-23.87,21.41-5.43,2.93-17.25,3.14-20.92-2.43-3.82-5.82-1.83-10.21-6.12-11.99-.47-.2-1.43-.53-2.26.11-13.5,10.52-29.19,24.98-47.5,21.38-10.39-2.04-18.12-9.7-20.28-20.09-.17-.84-.7-1.91-1.28-2.3s-2.17-.45-2.95.1l-39.84,27.74c-2.81,1.96-6.1,2.88-9.4,2.92-5.79.06-10.1-4.63-9.18-10.33l2.06-12.81c.17-1.06-.65-2.73-1.42-3.22-.91-.58-2.67-.54-3.72.19l-17.98,12.43c-9.29,6.42-18.37,12.6-28.03,18.37-3.34,2-7.65,2.18-10.92.37-3.08-1.7-4.26-5.55-3.6-8.94l2.61-13.54c.15-.77-.33-2.19-.85-2.65-.59-.52-2.36-.74-3.2-.17l-44.14,29.88c-4.44,3.01-10.65,5.1-14.72,1.02-1.61-1.61-2.87-4.44-2.28-7.04l4.7-20.99c.25-1.13-.52-2.87-1.28-3.37-.78-.52-2.84-.68-3.72-.11l-9.87,6.33-50.65,33.51c-4.51,2.98-10.68,4.93-14.72.77-1.51-1.56-3.19-4.64-2.59-7.44l12.88-59.53,9.7-44.08c.39-1.79-.74-4.11-1.69-5.16-3.86-4.25-14,1.74-17.66,4.93l-9.72,8.46c-4.43,3.86-9.04,7.23-14.22,10.01-1.35.73-3.66.23-4.69-.5-1.16-.82-2.22-2.96-1.77-4.7l7.51-28.9c1.45-5.57,5.35-8.83,10.8-10.2l82.55-20.64,41.64-10.95c1.8-.47,3.85.23,4.9,1.25,1.12,1.07,1.97,3.31,1.49,5.02-1.48,5.33-3.26,10.29-5.7,15.25l-10.69,21.73c-1.69,3.44-4.18,5.47-7.34,7.52-2.21,1.44-4.34,3.29-7.32,1.93-6.17-2.82,2.13-12.24-3.04-16.83-3.3-2.94-16.66.21-19.58,13.01l-8.57,37.51-6.07,26.15c-.55,2.36-.59,5.04.26,7.27,1.72,4.54,8.51,3.13,12.14,1.58,7.11-3.05,20.83-10.21,22.83-18.19l3.95-15.8c.8-3.21,3.76-6.58,7.06-7.54l25.82-7.53c2.12-.62,4.71.1,6.13,1.37,1.34,1.21,2.55,3.81,2.02,5.97l-7.48,30.09c-.58,2.31-1.03,4.66-.4,6.95.59,2.13,3.19,3,5.32,2.37,5.89-1.75,16.08-8.57,17.59-14.79l16.35-67.52c1.01-4.18,3.79-7.77,8.09-8.89,9.68-2.51,18.26-7.16,25.57-14.03,2.54-2.39,6.51-4.65,9.41-2.22.88.74,1.81,2.6,1.42,4.11l-17.6,69.15-5.81,22.64c-.5,1.93-.43,4.59.71,6.17,1.3,1.8,4.17,1.88,6.22,1.13,6.16-2.24,17.12-9.15,18.57-15.75l6.36-28.93c.12-.53-.25-1.8-.57-2.22-1.17-1.55-3.85.19-5.72-1.24-.68-.52-1.62-2.19-1.46-3.06l.79-4.5c.69-3.91,3.29-6.75,7.41-7.05,2-.15,3.97-1.74,4.4-3.75l1.81-8.34c2.56-11.83,11.89-3.69,29.2-19.48,2.67-2.43,6.12-4,8.9-1.51,1.03.92,1.85,2.91,1.5,4.49l-4.13,18.61c-.14.62.23,1.88.53,2.27s1.39.75,1.95.66l9.99-1.48c1.01-.15,2.56.26,3.15.88s1.24,2.4,1.04,3.25l-1.36,5.82c-.67,2.88-3.55,4.76-6.32,5.25l-9.5,1.68c-1.65.29-3.21,1.83-3.6,3.56l-8.57,37.94c-.4,1.77-.06,4.17.96,5.5,3.44,4.47,12.82-2.62,16.28-5.13.78-.56,1.38-1.99,1.53-3.06,2.53-18.2,12.07-34.43,26.16-46.21,7.87-6.58,21.99-14.89,37.21-9.73,10.15,3.44,14.45,12.64,10.67,22.7ZM352.2,80.36c.01-1.4-.86-3.11-1.78-3.62-4.16-2.3-9.1,3.89-11.14,7.29-3.44,5.74-5.4,11.99-6.42,18.64-.08.52.37,1.49.77,1.75,2.13,1.4,18.46-12.34,18.57-24.06ZM432.35,100.81c1.63-5.96,2.7-11.7,3.99-17.76.38-1.8.14-4.04-.43-5.67-1.21-3.45-4.78-4.62-8.02-3.01-3.28,1.63-5.8,4.4-7.82,7.61-4.87,7.76-11.04,22.77-9.6,31.73.48,3,3.16,4.87,6.11,4.2,6.99-1.59,14-10.61,15.78-17.11Z"/>
    <path class="cls-1" d="M180.3,66.46c-1.66,10.87-11.53,18.67-22.13,18.28-8.53-.31-14.46-6.85-13.68-15.39,1.05-11.49,11.93-20.43,23.41-18.91,7.96,1.05,13.65,7.81,12.4,16.02Z"/>
  </g>
</svg>